FFmpeg version SVN-r25716, Copyright (c) 2000-2010 the FFmpeg developers  built on Nov 10 2010 12:23:18 with gcc 4.1.2 20080704 (Red Hat 4.1.2-48)  configuration: --enable-libmp3lame --enable-shared --disable-mmx --arch=x86_64  libavutil     50.33. 0 / 50.33. 0  libavcore      0.12. 1 /  0.12. 1  libavcodec    52.94. 4 / 52.94. 4  libavformat   52.84. 0 / 52.84. 0  libavdevice   52. 2. 2 / 52. 2. 2  libavfilter    1.59. 0 /  1.59. 0  libswscale     0.12. 0 /  0.12. 0Input #0, avi, from '/RAID10/data/converted_video_files/31926.avi':  Duration: 00:01:20.83, start: 0.000000, bitrate: 198182 kb/s    Stream #0.0: Video: rawvideo, bgr24, 1344x1024, 6 tbr, 6 tbn, 6 tbc[buffer @ 0x1c973e0] w:1344 h:1024 pixfmt:bgr24[ffsink @ 0x1c97650] auto-inserting filter 'auto-inserted scaler 0' between the filter 'src' and the filter 'out'[scale @ 0x1c97970] w:1344 h:1024 fmt:bgr24 -> w:1344 h:1024 fmt:yuv420p flags:0x4Output #0, flv, to '/RAID10/data/converted_video_files/31926.flv':  Metadata:    encoder         : Lavf52.84.0    Stream #0.0: Video: flv, yuv420p, 1344x1024, q=2-31, 600 kb/s, 1k tbn, 24 tbcStream mapping:  Stream #0.0 -> #0.0Press [q] to stop encodingframe=   11 fps=  0 q=20.9 size=     357kB time=1.71 bitrate=1712.0kbits/s    frame=   23 fps= 21 q=25.8 size=     421kB time=3.71 bitrate= 929.3kbits/s    frame=   36 fps= 22 q=23.2 size=     491kB time=5.88 bitrate= 684.6kbits/s    frame=   48 fps= 22 q=19.6 size=     562kB time=7.88 bitrate= 585.0kbits/s    frame=   60 fps= 22 q=17.8 size=     638kB time=9.88 bitrate= 529.4kbits/s    frame=   72 fps= 22 q=16.3 size=     721kB time=11.88 bitrate= 497.6kbits/s    frame=   84 fps= 22 q=15.0 size=     806kB time=13.88 bitrate= 475.8kbits/s    frame=   95 fps= 22 q=13.1 size=     888kB time=15.71 bitrate= 462.9kbits/s    frame=  107 fps= 22 q=15.2 size=     990kB time=17.71 bitrate= 457.8kbits/s    frame=  119 fps= 23 q=13.0 size=    1089kB time=19.71 bitrate= 452.9kbits/s    frame=  131 fps= 23 q=12.7 size=    1194kB time=21.71 bitrate= 450.6kbits/s    frame=  142 fps= 23 q=12.7 size=    1296kB time=23.54 bitrate= 450.9kbits/s    frame=  154 fps= 23 q=12.6 size=    1407kB time=25.54 bitrate= 451.4kbits/s    frame=  166 fps= 22 q=11.8 size=    1522kB time=27.54 bitrate= 452.8kbits/s    frame=  177 fps= 22 q=12.4 size=    1634kB time=29.38 bitrate= 455.8kbits/s    frame=  189 fps= 23 q=11.6 size=    1752kB time=31.38 bitrate= 457.6kbits/s    frame=  201 fps= 23 q=11.8 size=    1875kB time=33.38 bitrate= 460.1kbits/s    frame=  212 fps= 22 q=12.6 size=    1996kB time=35.21 bitrate= 464.4kbits/s    frame=  224 fps= 22 q=11.7 size=    2122kB time=37.21 bitrate= 467.2kbits/s    frame=  236 fps= 22 q=11.6 size=    2250kB time=39.21 bitrate= 470.1kbits/s    frame=  247 fps= 22 q=11.6 size=    2371kB time=41.04 bitrate= 473.3kbits/s    frame=  259 fps= 22 q=11.5 size=    2503kB time=43.04 bitrate= 476.3kbits/s    frame=  270 fps= 22 q=11.3 size=    2625kB time=44.88 bitrate= 479.3kbits/s    frame=  281 fps= 22 q=11.3 size=    2752kB time=46.71 bitrate= 482.7kbits/s    frame=  293 fps= 22 q=11.0 size=    2886kB time=48.71 bitrate= 485.4kbits/s    frame=  304 fps= 22 q=10.9 size=    3011kB time=50.54 bitrate= 488.0kbits/s    frame=  315 fps= 22 q=11.3 size=    3142kB time=52.38 bitrate= 491.4kbits/s    frame=  326 fps= 22 q=12.2 size=    3278kB time=54.21 bitrate= 495.3kbits/s    frame=  337 fps= 22 q=9.2 size=    3414kB time=56.04 bitrate= 499.0kbits/s    frame=  347 fps= 22 q=12.1 size=    3502kB time=57.71 bitrate= 497.2kbits/s    frame=  358 fps= 22 q=12.0 size=    3637kB time=59.54 bitrate= 500.4kbits/s    frame=  368 fps= 22 q=12.0 size=    3759kB time=61.21 bitrate= 503.2kbits/s    frame=  379 fps= 22 q=11.9 size=    3892kB time=63.04 bitrate= 505.8kbits/s    frame=  390 fps= 22 q=12.1 size=    4027kB time=64.88 bitrate= 508.5kbits/s    frame=  401 fps= 22 q=12.2 size=    4163kB time=66.71 bitrate= 511.2kbits/s    frame=  412 fps= 22 q=11.9 size=    4297kB time=68.54 bitrate= 513.5kbits/s    frame=  422 fps= 22 q=11.9 size=    4422kB time=70.21 bitrate= 515.9kbits/s    frame=  432 fps= 22 q=12.5 size=    4512kB time=71.88 bitrate= 514.2kbits/s    frame=  443 fps= 22 q=12.5 size=    4649kB time=73.71 bitrate= 516.7kbits/s    frame=  453 fps= 22 q=12.3 size=    4776kB time=75.38 bitrate= 519.1kbits/s    frame=  464 fps= 22 q=13.2 size=    4916kB time=77.21 bitrate= 521.6kbits/s    frame=  474 fps= 21 q=14.2 size=    5048kB time=78.88 bitrate= 524.3kbits/s    frame=  485 fps= 21 q=14.0 size=    5191kB time=80.71 bitrate= 526.9kbits/s    frame=  485 fps= 21 q=14.0 Lsize=    5191kB time=80.71 bitrate= 526.9kbits/s    video:5183kB audio:0kB global headers:0kB muxing overhead 0.150160%